<svg width="352" height="57" viewBox="0 0 352 57" fill="none" xmlns="http://www.w3.org/2000/svg">
<path d="M21.25 32.5625C21.4583 32.5625 21.6458 32.5104 21.8125 32.4062V29.5625C23.2292 28.6042 25.2083 27.8229 27.75 27.2188C30.3125 26.6146 32.8021 26.3125 35.2188 26.3125C36.3229 27.4375 37.2396 29.125 37.9688 31.375C38.7188 33.6042 39.1146 35.625 39.1562 37.4375C38.7396 38.2708 38.0312 39.1667 37.0312 40.125C36.0521 41.0833 34.8646 41.9688 33.4688 42.7812C30.0104 44.8229 26.0417 45.8438 21.5625 45.8438C15.1458 45.8438 10.0938 43.9792 6.40625 40.25C2.59375 36.4792 0.6875 31.2604 0.6875 24.5938C0.6875 17.9062 2.77083 12.6562 6.9375 8.84375C8.77083 7.13542 10.9062 5.85417 13.3438 5C15.7812 4.125 18.3438 3.6875 21.0312 3.6875C26.2812 3.6875 30.5833 4.95833 33.9375 7.5C37.2917 10.0417 38.9688 13.1771 38.9688 16.9062C38.9688 19.7188 38.1042 21.8021 36.375 23.1562C34.6458 24.4896 32.3021 25.1562 29.3438 25.1562C27.7188 25.1562 26.0833 24.7604 24.4375 23.9688C22.7917 23.1562 21.8125 22.3958 21.5 21.6875C21.5 19.9792 21.5312 18.6354 21.5938 17.6562C21.5521 17.6354 21.4792 17.625 21.375 17.625H21.1562C20.8438 17.625 20.5938 17.7188 20.4062 17.9062C20.2396 18.0729 20.0833 18.4375 19.9375 19C19.8125 19.5625 19.75 21.0938 19.75 23.5938C19.75 29.5729 20.25 32.5625 21.25 32.5625ZM56.4375 27.5938V33.0625C56.5833 33.2083 56.8229 33.2812 57.1562 33.2812C57.4896 33.2812 57.7292 33.1667 57.875 32.9375C58.0208 32.7083 58.0938 32.3125 58.0938 31.75V27.2812C58.0938 25.2812 58.0104 23.9583 57.8438 23.3125C57.6771 22.6458 57.3646 22.3125 56.9062 22.3125C56.6146 22.3125 56.3646 22.4167 56.1562 22.625C56.3438 24.6875 56.4375 26.3438 56.4375 27.5938ZM44.75 41.4375C41.3333 38.1458 39.625 33.6875 39.625 28.0625C39.625 22.4167 41.2292 17.9688 44.4375 14.7188C47.6667 11.4479 51.8958 9.8125 57.125 9.8125C62.3542 9.8125 66.5833 11.5104 69.8125 14.9062C73.0208 18.3021 74.625 22.7292 74.625 28.1875C74.625 33.625 73.0729 37.9479 69.9688 41.1562C66.8854 44.3646 62.6875 45.9688 57.375 45.9688C52.0625 45.9688 47.8542 44.4583 44.75 41.4375ZM110.75 45.4062C108.271 45.4062 106.292 44.9583 104.812 44.0625C103.167 43.125 102.344 41.7396 102.344 39.9062V25.25H103.312C104.354 25.25 104.875 24.9062 104.875 24.2188C104.875 24.1354 104.854 24.0104 104.812 23.8438H95.5V43.25C93.2292 44.6875 90.5417 45.4062 87.4375 45.4062C84.9583 45.4062 82.9792 44.9583 81.5 44.0625C79.8542 43.125 79.0312 41.7396 79.0312 39.9062V25.25H80C81.0417 25.25 81.5625 24.9062 81.5625 24.2188C81.5625 24.1354 81.5417 24.0104 81.5 23.8438H76.3125C75.1042 22.1146 74.5 19.9792 74.5 17.4375C74.5 14.8958 75.1042 12.6979 76.3125 10.8438H79.0312C79.5104 7.36458 80.8542 4.71875 83.0625 2.90625C85.2917 1.07292 88.2396 0.15625 91.9062 0.15625C94.3229 0.15625 96.5104 0.5 98.4688 1.1875C100.427 1.85417 101.938 2.73958 103 3.84375C101.354 6.55208 100.5 9.65625 100.438 13.1562C99.125 13.3438 97.8958 13.4375 96.75 13.4375C95.6042 13.4375 94.375 13.375 93.0625 13.25C91.75 13.1042 90.7708 12.9479 90.125 12.7812C89.9792 12.9271 89.9062 13.1354 89.9062 13.4062C89.9062 13.7604 90.4271 14.0938 91.4688 14.4062C92.5312 14.6979 94.2083 14.8438 96.5 14.8438C98.7917 14.8438 100.656 14.7188 102.094 14.4688V13.4688C102.094 9.34375 103.188 6.09375 105.375 3.71875C107.562 1.34375 110.844 0.15625 115.219 0.15625C117.844 0.15625 120.125 0.53125 122.062 1.28125C124 2.03125 125.417 2.88542 126.312 3.84375C126.521 4.53125 126.625 5.36458 126.625 6.34375V6.9375C126.625 9.08333 126.312 10.9688 125.688 12.5938C124.25 13.1562 122.24 13.4375 119.656 13.4375C118.594 13.4375 117.427 13.3646 116.156 13.2188C114.906 13.0729 113.979 12.9271 113.375 12.7812C113.229 12.9271 113.156 13.1354 113.156 13.4062C113.156 13.7604 113.656 14.0938 114.656 14.4062C115.656 14.6979 117.271 14.8438 119.5 14.8438C121.75 14.8438 123.594 14.7188 125.031 14.4688C125.177 14.8021 125.312 15.4375 125.438 16.375C125.583 17.2917 125.656 18.1979 125.656 19.0938C125.656 21.0104 125.302 22.5938 124.594 23.8438H118.812V43.25C116.542 44.6875 113.854 45.4062 110.75 45.4062ZM144.531 45.9688C138.76 45.9688 134.208 44.3646 130.875 41.1562C127.458 37.9271 125.75 33.5104 125.75 27.9062C125.75 22.2812 127.51 17.8229 131.031 14.5312C134.281 11.4688 138.396 9.9375 143.375 9.9375C148.354 9.9375 152.344 11.3125 155.344 14.0625C158.365 16.7917 159.875 20.1562 159.875 24.1562C159.875 27.7188 158.635 30.4062 156.156 32.2188C153.865 33.9271 150.74 34.7812 146.781 34.7812C143.823 34.7812 141.323 34.1667 139.281 32.9375C139.115 33.0625 139.031 33.2917 139.031 33.625C139.031 34.25 139.854 34.8229 141.5 35.3438C143.146 35.9062 145.01 36.1875 147.094 36.1875C149.198 36.1875 151.104 35.9271 152.812 35.4062C154.542 34.8646 155.927 34.2292 156.969 33.5C157.469 33.9375 157.865 34.75 158.156 35.9375C158.469 37.1042 158.625 38.1771 158.625 39.1562C158.625 40.1146 158.531 40.9688 158.344 41.7188C156.719 43.0938 155.052 44.0729 153.344 44.6562C150.927 45.5312 147.99 45.9688 144.531 45.9688ZM144.125 24.8125C145.167 24.8125 145.688 24.4167 145.688 23.625C145.688 22.875 145.135 22.5 144.031 22.5C142.927 22.5 142.292 23.0938 142.125 24.2812C142.708 24.6354 143.375 24.8125 144.125 24.8125ZM179.906 45.9688C174.135 45.9688 169.583 44.3646 166.25 41.1562C162.833 37.9271 161.125 33.5104 161.125 27.9062C161.125 22.2812 162.885 17.8229 166.406 14.5312C169.656 11.4688 173.771 9.9375 178.75 9.9375C183.729 9.9375 187.719 11.3125 190.719 14.0625C193.74 16.7917 195.25 20.1562 195.25 24.1562C195.25 27.7188 194.01 30.4062 191.531 32.2188C189.24 33.9271 186.115 34.7812 182.156 34.7812C179.198 34.7812 176.698 34.1667 174.656 32.9375C174.49 33.0625 174.406 33.2917 174.406 33.625C174.406 34.25 175.229 34.8229 176.875 35.3438C178.521 35.9062 180.385 36.1875 182.469 36.1875C184.573 36.1875 186.479 35.9271 188.188 35.4062C189.917 34.8646 191.302 34.2292 192.344 33.5C192.844 33.9375 193.24 34.75 193.531 35.9375C193.844 37.1042 194 38.1771 194 39.1562C194 40.1146 193.906 40.9688 193.719 41.7188C192.094 43.0938 190.427 44.0729 188.719 44.6562C186.302 45.5312 183.365 45.9688 179.906 45.9688ZM179.5 24.8125C180.542 24.8125 181.062 24.4167 181.062 23.625C181.062 22.875 180.51 22.5 179.406 22.5C178.302 22.5 177.667 23.0938 177.5 24.2812C178.083 24.6354 178.75 24.8125 179.5 24.8125Z" fill="#FF35C6"/>
<path d="M228.594 20.5C228.052 20.6667 227.781 20.9896 227.781 21.4688V21.625C227.781 21.7292 227.792 21.7917 227.812 21.8125C228.042 21.7917 228.344 21.7812 228.719 21.7812H229.469C231.844 21.7812 234.062 22.1458 236.125 22.875C238.208 23.5833 239.906 24.7292 241.219 26.3125C242.677 28.1042 243.406 30.3646 243.406 33.0938C243.406 37.3438 241.938 40.5521 239 42.7188C236.062 44.8854 232.135 45.9688 227.219 45.9688C222.302 45.9688 218.448 45.1562 215.656 43.5312C212.885 41.9062 211.5 39.5208 211.5 36.375C211.5 35.2083 211.75 34.1458 212.25 33.1875C212.75 32.2083 213.312 31.5208 213.938 31.125C215.083 32.0833 216.74 32.9167 218.906 33.625C221.094 34.3125 223.406 34.6562 225.844 34.6562C226.823 34.6562 227.312 34.3854 227.312 33.8438C227.312 33.5938 227.281 33.3854 227.219 33.2188C227.073 33.2396 226.896 33.25 226.688 33.25H226.344C221.927 33.25 218.396 32.375 215.75 30.625C212.75 28.6458 211.25 25.8542 211.25 22.25C211.25 18.6458 212.594 15.7292 215.281 13.5C218.26 11.0417 222.354 9.8125 227.562 9.8125C230.125 9.8125 232.51 10.0833 234.719 10.625C236.948 11.1667 238.854 11.8854 240.438 12.7812C240.833 13.6354 241.031 14.8958 241.031 16.5625C241.031 19.1042 240.333 21.0521 238.938 22.4062C237.875 21.8229 236.573 21.3438 235.031 20.9688C233.51 20.5729 232.135 20.375 230.906 20.375C229.677 20.375 228.906 20.4167 228.594 20.5ZM277.781 29.5312C277.781 31.0312 277.948 32.2396 278.281 33.1562C278.615 34.0729 279.198 34.7917 280.031 35.3125C280.052 35.4167 280.062 35.6146 280.062 35.9062V36.4688C280.062 39.3438 279.229 41.5833 277.562 43.1875C275.917 44.7708 273.781 45.5625 271.156 45.5625C268.552 45.5625 266.438 44.8229 264.812 43.3438C262.917 41.6562 261.969 39.0938 261.969 35.6562C261.969 34.1979 262.031 32.9167 262.156 31.8125C262.302 30.6875 262.396 29.8854 262.438 29.4062C262.5 28.9271 262.562 28.4792 262.625 28.0625C262.688 27.6458 262.719 27.0312 262.719 26.2188C262.719 25.4062 262.604 24.8229 262.375 24.4688C262.167 24.1146 261.865 23.9375 261.469 23.9375C261.094 23.9375 260.76 24.0208 260.469 24.1875L260.875 29.2812C260.5 31.3854 260.312 33.6146 260.312 35.9688C260.312 38.3229 260.844 40.4688 261.906 42.4062C259.865 44.5104 257 45.5625 253.312 45.5625C251.208 45.5625 249.385 45.0104 247.844 43.9062C246.052 42.6562 245.156 41 245.156 38.9375V2.46875C246.156 1.88542 247.354 1.40625 248.75 1.03125C250.167 0.65625 251.594 0.46875 253.031 0.46875C255.427 0.46875 257.406 0.9375 258.969 1.875C260.74 2.97917 261.625 4.5625 261.625 6.625V9.59375C259.812 9.69792 258.073 10.2188 256.406 11.1562C254.969 11.9896 254.25 12.75 254.25 13.4375C254.25 13.6667 254.333 13.875 254.5 14.0625C254.667 14.2292 254.865 14.3333 255.094 14.375C255.969 13.3542 257.198 12.5 258.781 11.8125C260.385 11.125 262.281 10.7812 264.469 10.7812C266.656 10.7812 268.625 11.1146 270.375 11.7812C272.583 12.6146 274.323 13.8854 275.594 15.5938C277.115 17.6771 277.875 20.2917 277.875 23.4375L277.781 29.5312ZM297.25 27.5938V33.0625C297.396 33.2083 297.635 33.2812 297.969 33.2812C298.302 33.2812 298.542 33.1667 298.688 32.9375C298.833 32.7083 298.906 32.3125 298.906 31.75V27.2812C298.906 25.2812 298.823 23.9583 298.656 23.3125C298.49 22.6458 298.177 22.3125 297.719 22.3125C297.427 22.3125 297.177 22.4167 296.969 22.625C297.156 24.6875 297.25 26.3438 297.25 27.5938ZM285.562 41.4375C282.146 38.1458 280.438 33.6875 280.438 28.0625C280.438 22.4167 282.042 17.9688 285.25 14.7188C288.479 11.4479 292.708 9.8125 297.938 9.8125C303.167 9.8125 307.396 11.5104 310.625 14.9062C313.833 18.3021 315.438 22.7292 315.438 28.1875C315.438 33.625 313.885 37.9479 310.781 41.1562C307.698 44.3646 303.5 45.9688 298.188 45.9688C292.875 45.9688 288.667 44.4583 285.562 41.4375ZM333.938 28.125V32.3125C334.083 32.4583 334.323 32.5312 334.656 32.5312C334.99 32.5312 335.229 32.4167 335.375 32.1875C335.521 31.9583 335.594 31.5625 335.594 31V27.8125C335.594 25.8125 335.51 24.4896 335.344 23.8438C335.177 23.1771 334.865 22.8438 334.406 22.8438C334.115 22.8438 333.865 22.9479 333.656 23.1562C333.844 25.2188 333.938 26.875 333.938 28.125ZM323.969 14.6562C323.969 15.2812 324.333 15.5938 325.062 15.5938C326.312 13.6354 327.781 12.1875 329.469 11.25C331.156 10.2917 333.188 9.8125 335.562 9.8125C337.938 9.8125 340.104 10.1875 342.062 10.9375C344.75 12 346.875 13.7083 348.438 16.0625C350.396 19.0417 351.375 22.9479 351.375 27.7812C351.375 33.2188 349.917 37.4479 347 40.4688C344.104 43.4688 340.083 44.9688 334.938 44.9688C332.062 44.9688 329.823 44.6146 328.219 43.9062C328.073 43.9896 328 44.1667 328 44.4375C328 45.0625 328.479 45.5104 329.438 45.7812C330.417 46.0521 332.094 46.25 334.469 46.375V54.6875C332.323 55.6458 329.969 56.125 327.406 56.125C324.385 56.125 322.104 55.5729 320.562 54.4688C318.812 53.2812 317.938 51.4583 317.938 49V23.8438C316.708 22.1146 316.094 19.9688 316.094 17.4062C316.094 16.3646 316.26 15.2292 316.594 14C316.927 12.7708 317.375 11.7188 317.938 10.8438H322.375C324.188 10.8438 325.573 11.0938 326.531 11.5938C324.823 12.8646 323.969 13.8854 323.969 14.6562Z" fill="#1E1E1E"/>
<path d="M21.8125 32.4062L22.3425 33.2542L22.8125 32.9605V32.4062H21.8125ZM21.8125 29.5625L21.2522 28.7342L20.8125 29.0317V29.5625H21.8125ZM27.75 27.2188L27.5205 26.2454L27.5187 26.2459L27.75 27.2188ZM35.2188 26.3125L35.9324 25.612L35.6384 25.3125H35.2188V26.3125ZM37.9688 31.375L37.0174 31.6833L37.021 31.6939L37.9688 31.375ZM39.1562 37.4375L40.0507 37.8847L40.1617 37.6627L40.156 37.4145L39.1562 37.4375ZM37.0312 40.125L36.3393 39.403L36.3318 39.4103L37.0312 40.125ZM33.4688 42.7812L32.9657 41.917L32.9604 41.9201L33.4688 42.7812ZM6.40625 40.25L7.11736 39.5468L7.10946 39.539L6.40625 40.25ZM6.9375 8.84375L7.61258 9.58155L7.61923 9.57536L6.9375 8.84375ZM13.3438 5L13.6745 5.94376L13.6816 5.94119L13.3438 5ZM36.375 23.1562L36.9856 23.9482L36.9916 23.9436L36.375 23.1562ZM24.4375 23.9688L23.9948 24.8655L24.004 24.8699L24.4375 23.9688ZM21.5 21.6875H20.5V21.8983L20.5851 22.0911L21.5 21.6875ZM21.5938 17.6562L22.5917 17.72L22.634 17.0583L22.041 16.7618L21.5938 17.6562ZM19.9375 19L18.9695 18.749L18.9651 18.766L18.9613 18.7831L19.9375 19ZM21.25 33.5625C21.634 33.5625 22.0072 33.4638 22.3425 33.2542L21.2825 31.5583C21.2815 31.5589 21.2809 31.5592 21.2805 31.5594C21.2802 31.5596 21.28 31.5597 21.28 31.5597C21.2799 31.5597 21.2799 31.5597 21.2799 31.5597C21.2798 31.5597 21.2796 31.5598 21.2792 31.5599C21.2786 31.5601 21.2701 31.5625 21.25 31.5625V33.5625ZM22.8125 32.4062V29.5625H20.8125V32.4062H22.8125ZM22.3728 30.3908C23.6511 29.526 25.5016 28.7811 27.9813 28.1916L27.5187 26.2459C24.915 26.8648 22.8072 27.6823 21.2522 28.7342L22.3728 30.3908ZM27.9795 28.1921C30.4734 27.6041 32.8859 27.3125 35.2188 27.3125V25.3125C32.7183 25.3125 30.1516 25.6251 27.5205 26.2454L27.9795 28.1921ZM34.5051 27.013C35.4601 27.986 36.3142 29.5132 37.0175 31.6833L38.92 31.0667C38.165 28.7368 37.1858 26.889 35.9324 25.612L34.5051 27.013ZM37.021 31.6939C37.7478 33.8543 38.1177 35.7735 38.1565 37.4605L40.156 37.4145C40.1114 35.4765 39.6897 33.354 38.9165 31.0561L37.021 31.6939ZM38.2618 36.9903C37.9149 37.6841 37.2929 38.4892 36.3393 39.403L37.7232 40.847C38.7696 39.8442 39.5643 38.8576 40.0507 37.8847L38.2618 36.9903ZM36.3318 39.4103C35.4211 40.3017 34.3025 41.1389 32.9657 41.917L33.9718 43.6455C35.4267 42.7986 36.6831 41.865 37.7307 40.8397L36.3318 39.4103ZM32.9604 41.9201C29.6733 43.8607 25.884 44.8438 21.5625 44.8438V46.8438C26.1994 46.8438 30.3476 45.7851 33.9771 43.6424L32.9604 41.9201ZM21.5625 44.8438C15.3494 44.8438 10.5765 43.0452 7.11732 39.5469L5.69518 40.9531C9.61099 44.9132 14.9423 46.8438 21.5625 46.8438V44.8438ZM7.10946 39.539C3.53081 35.9995 1.6875 31.0622 1.6875 24.5938H-0.3125C-0.3125 31.4587 1.65669 36.9589 5.70304 40.961L7.10946 39.539ZM1.6875 24.5938C1.6875 18.1305 3.69112 13.1696 7.61256 9.58152L6.26244 8.10598C1.85054 12.1429 -0.3125 17.682 -0.3125 24.5938H1.6875ZM7.61923 9.57536C9.34833 7.96414 11.3633 6.75364 13.6745 5.94373L13.013 4.05627C10.4492 4.95469 8.19333 6.30669 6.25577 8.11214L7.61923 9.57536ZM13.6816 5.94119C16.0067 5.10657 18.4545 4.6875 21.0312 4.6875V2.6875C18.233 2.6875 15.5558 3.14343 13.0059 4.05881L13.6816 5.94119ZM21.0312 4.6875C26.1181 4.6875 30.1924 5.91675 33.3335 8.29702L34.5415 6.70298C30.9743 3.99992 26.4444 2.6875 21.0312 2.6875V4.6875ZM33.3335 8.29702C36.4749 10.6774 37.9688 13.5334 37.9688 16.9062H39.9688C39.9688 12.8208 38.1084 9.40592 34.5415 6.70298L33.3335 8.29702ZM37.9688 16.9062C37.9688 19.5055 37.18 21.2557 35.7584 22.3689L36.9916 23.9436C39.0283 22.3485 39.9688 19.932 39.9688 16.9062H37.9688ZM35.7644 22.3643C34.2631 23.522 32.1588 24.1562 29.3438 24.1562V26.1562C32.4454 26.1562 35.0286 25.4572 36.9856 23.9482L35.7644 22.3643ZM29.3438 24.1562C27.8865 24.1562 26.3984 23.8023 24.871 23.0676L24.004 24.8699C25.7682 25.7185 27.551 26.1562 29.3438 26.1562V24.1562ZM24.8802 23.0721C24.0918 22.6829 23.4998 22.3236 23.0821 21.9993C22.6529 21.6659 22.4756 21.4214 22.4149 21.2839L20.5851 22.0911C20.8369 22.6619 21.3055 23.1518 21.8554 23.5789C22.4169 24.0149 23.1374 24.4421 23.9948 24.8654L24.8802 23.0721ZM22.5 21.6875C22.5 19.9874 22.5312 18.668 22.5917 17.72L20.5958 17.5925C20.5313 18.6028 20.5 19.971 20.5 21.6875H22.5ZM22.041 16.7618C21.7714 16.627 21.4879 16.625 21.375 16.625V18.625C21.3975 18.625 21.3915 18.6264 21.3664 18.6228C21.3529 18.6208 21.3274 18.6166 21.2935 18.6073C21.2607 18.5984 21.2085 18.5817 21.1465 18.5507L22.041 16.7618ZM21.375 16.625H21.1562V18.625H21.375V16.625ZM21.1562 16.625C20.6295 16.625 20.1074 16.7909 19.6991 17.1991L21.1134 18.6134C21.1107 18.616 21.1059 18.6202 21.0994 18.6244C21.0928 18.6286 21.0876 18.6308 21.0855 18.6316C21.0809 18.6334 21.0999 18.625 21.1562 18.625V16.625ZM19.6991 17.1991C19.4848 17.4135 19.3436 17.6804 19.2449 17.9108C19.1401 18.1553 19.0498 18.4392 18.9695 18.749L20.9055 19.251C20.971 18.9983 21.0318 18.8186 21.0832 18.6986C21.1407 18.5644 21.161 18.5657 21.1134 18.6134L19.6991 17.1991ZM18.9613 18.7831C18.8769 19.1631 18.8287 19.7709 18.7977 20.5295C18.7657 21.3145 18.75 22.3375 18.75 23.5938H20.75C20.75 22.35 20.7656 21.3574 20.796 20.6111C20.8276 19.8385 20.8731 19.3994 20.9137 19.2169L18.9613 18.7831ZM18.75 23.5938C18.75 26.5963 18.8746 28.906 19.1387 30.4853C19.2691 31.265 19.4451 31.9425 19.6999 32.4504C19.9358 32.9205 20.4114 33.5625 21.25 33.5625V31.5625C21.5886 31.5625 21.6267 31.8308 21.4876 31.5535C21.3674 31.314 21.2309 30.8704 21.1113 30.1554C20.8754 28.7451 20.75 26.5703 20.75 23.5938H18.75ZM56.4375 33.0625H55.4375V33.4767L55.7304 33.7696L56.4375 33.0625ZM57.8438 23.3125L56.8736 23.555L56.8755 23.5624L57.8438 23.3125ZM56.1562 22.625L55.4491 21.9179L55.118 22.2491L55.1604 22.7155L56.1562 22.625ZM44.75 41.4375L45.4474 40.7208L45.4438 40.7173L44.75 41.4375ZM44.4375 14.7188L43.7259 14.0162L43.7258 14.0162L44.4375 14.7188ZM69.8125 14.9062L70.5394 14.2195L70.5372 14.2172L69.8125 14.9062ZM69.9688 41.1562L69.2501 40.4609L69.2477 40.4633L69.9688 41.1562ZM55.4375 27.5938V33.0625H57.4375V27.5938H55.4375ZM55.7304 33.7696C56.1512 34.1904 56.7143 34.2812 57.1562 34.2812V32.2812C57.1088 32.2812 57.074 32.2786 57.0501 32.2756C57.0261 32.2725 57.0163 32.2695 57.0177 32.2699C57.0216 32.2711 57.0791 32.2899 57.1446 32.3554L55.7304 33.7696ZM57.1562 34.2812C57.7421 34.2812 58.3459 34.0601 58.7187 33.4744L57.0313 32.4006C57.0417 32.3843 57.0584 32.363 57.0824 32.3416C57.1066 32.3201 57.1318 32.304 57.1545 32.2932C57.1993 32.2718 57.2107 32.2812 57.1562 32.2812V34.2812ZM58.7187 33.4744C59.0288 32.987 59.0938 32.338 59.0938 31.75H57.0938C57.0938 31.9924 57.0777 32.1677 57.0556 32.2876C57.0323 32.4144 57.0104 32.4336 57.0313 32.4006L58.7187 33.4744ZM59.0938 31.75V27.2812H57.0938V31.75H59.0938ZM59.0938 27.2812C59.0938 25.3033 59.0157 23.8519 58.812 23.0626L56.8755 23.5624C57.0051 24.0648 57.0938 25.2592 57.0938 27.2812H59.0938ZM58.8139 23.07C58.7084 22.6482 58.5309 22.2167 58.2139 21.8786C57.8679 21.5095 57.4108 21.3125 56.9062 21.3125V23.3125C56.8969 23.3125 56.8658 23.3102 56.8257 23.2929C56.7857 23.2755 56.7621 23.2541 56.7548 23.2464C56.7499 23.2412 56.7648 23.2554 56.7896 23.3071C56.8144 23.359 56.8446 23.4389 56.8736 23.555L58.8139 23.07ZM56.9062 21.3125C56.3464 21.3125 55.8429 21.5242 55.4491 21.9179L56.8634 23.3321C56.8741 23.3214 56.881 23.3163 56.8836 23.3145C56.8862 23.3128 56.8863 23.313 56.8846 23.3137C56.8829 23.3144 56.8823 23.3144 56.8842 23.314C56.8862 23.3137 56.8931 23.3125 56.9062 23.3125V21.3125ZM55.1604 22.7155C55.3466 24.7647 55.4375 26.3871 55.4375 27.5938H57.4375C57.4375 26.3004 57.3409 24.6103 57.1521 22.5345L55.1604 22.7155ZM45.4438 40.7173C42.2588 37.6489 40.625 33.4703 40.625 28.0625H38.625C38.625 33.9047 40.4078 38.6428 44.0562 42.1577L45.4438 40.7173ZM40.625 28.0625C40.625 22.6139 42.1671 18.442 45.1492 15.4213L43.7258 14.0162C40.2912 17.4955 38.625 22.2194 38.625 28.0625H40.625ZM45.1491 15.4213C48.164 12.3676 52.1231 10.8125 57.125 10.8125V8.8125C51.6685 8.8125 47.1694 10.5283 43.7259 14.0162L45.1491 15.4213ZM57.125 10.8125C62.1152 10.8125 66.0703 12.4221 69.0878 15.5953L70.5372 14.2172C67.0964 10.5988 62.5931 8.8125 57.125 8.8125V10.8125ZM69.0856 15.593C72.0893 18.7723 73.625 22.9386 73.625 28.1875H75.625C75.625 22.5198 73.9524 17.8319 70.5394 14.2195L69.0856 15.593ZM73.625 28.1875C73.625 33.4255 72.136 37.4781 69.2501 40.4609L70.6874 41.8516C74.0098 38.4177 75.625 33.8245 75.625 28.1875H73.625ZM69.2477 40.4633C66.3891 43.4379 62.4723 44.9688 57.375 44.9688V46.9688C62.9027 46.9688 67.3818 45.2913 70.6898 41.8492L69.2477 40.4633ZM57.375 44.9688C52.2606 44.9688 48.3245 43.5207 45.4474 40.7208L44.0526 42.1542C47.3839 45.396 51.8644 46.9688 57.375 46.9688V44.9688ZM104.812 44.0625L105.331 43.2071L105.319 43.2002L105.307 43.1936L104.812 44.0625ZM102.344 25.25V24.25H101.344V25.25H102.344ZM104.812 23.8438L105.783 23.6012L105.593 22.8438H104.812V23.8438ZM95.5 23.8438V22.8438H94.5V23.8438H95.5ZM95.5 43.25L96.0349 44.0949L96.5 43.8005V43.25H95.5ZM81.5 44.0625L82.018 43.2071L82.0066 43.2002L81.995 43.1936L81.5 44.0625ZM79.0312 25.25V24.25H78.0312V25.25H79.0312ZM81.5 23.8438L82.4701 23.6012L82.2808 22.8438H81.5V23.8438ZM76.3125 23.8438L75.4928 24.4165L75.7913 24.8438H76.3125V23.8438ZM76.3125 10.8438V9.84375H75.7706L75.4747 10.2978L76.3125 10.8438ZM79.0312 10.8438V11.8438H79.903L80.0219 10.9802L79.0312 10.8438ZM83.0625 2.90625L83.6969 3.67923L83.6977 3.6786L83.0625 2.90625ZM98.4688 1.1875L98.1375 2.13109L98.1465 2.13415L98.4688 1.1875ZM103 3.84375L103.855 4.36307L104.254 3.70513L103.721 3.15037L103 3.84375ZM100.438 13.1562L100.579 14.1462L101.422 14.0257L101.437 13.1741L100.438 13.1562ZM93.0625 13.25L92.9521 14.2439L92.9599 14.2448L92.9677 14.2455L93.0625 13.25ZM90.125 12.7812L90.3749 11.813L89.8218 11.6702L89.4179 12.0741L90.125 12.7812ZM91.4688 14.4062L91.1814 15.3641L91.1927 15.3675L91.204 15.3706L91.4688 14.4062ZM102.094 14.4688L102.265 15.454L103.094 15.3098V14.4688H102.094ZM126.312 3.84375L127.27 3.55374L127.202 3.33094L127.043 3.16087L126.312 3.84375ZM125.688 12.5938L126.052 13.525L126.463 13.3643L126.621 12.9527L125.688 12.5938ZM116.156 13.2188L116.04 14.212L116.042 14.2122L116.156 13.2188ZM113.375 12.7812L113.61 11.8092L113.064 11.6776L112.668 12.0741L113.375 12.7812ZM114.656 14.4062L114.358 15.3607L114.367 15.3636L114.376 15.3663L114.656 14.4062ZM125.031 14.4688L125.947 14.0679L125.633 13.3491L124.86 13.4835L125.031 14.4688ZM125.438 16.375L124.446 16.5072L124.448 16.5197L124.45 16.5321L125.438 16.375ZM124.594 23.8438V24.8438H125.176L125.464 24.3368L124.594 23.8438ZM118.812 23.8438V22.8438H117.812V23.8438H118.812ZM118.812 43.25L119.347 44.0949L119.812 43.8005V43.25H118.812ZM110.75 44.4062C108.379 44.4062 106.6 43.9759 105.331 43.2071L104.294 44.9179C105.983 45.9408 108.163 46.4062 110.75 46.4062V44.4062ZM105.307 43.1936C103.961 42.4266 103.344 41.3657 103.344 39.9062H101.344C101.344 42.1134 102.372 43.8234 104.318 44.9314L105.307 43.1936ZM103.344 39.9062V25.25H101.344V39.9062H103.344ZM102.344 26.25H103.312V24.25H102.344V26.25ZM103.312 26.25C103.912 26.25 104.535 26.1569 105.035 25.8268C105.608 25.4487 105.875 24.8581 105.875 24.2188H103.875C103.875 24.2636 103.867 24.2542 103.885 24.2191C103.893 24.2026 103.904 24.1872 103.915 24.1745C103.927 24.1622 103.934 24.1571 103.934 24.1576C103.93 24.1599 103.889 24.1852 103.781 24.2089C103.674 24.2325 103.521 24.25 103.312 24.25V26.25ZM105.875 24.2188C105.875 24.0063 105.828 23.782 105.783 23.6012L103.842 24.0863C103.859 24.1522 103.868 24.198 103.873 24.2269C103.874 24.2337 103.875 24.2389 103.875 24.2425C103.876 24.2462 103.876 24.248 103.876 24.2479C103.876 24.2479 103.876 24.2473 103.876 24.2462C103.876 24.2451 103.876 24.2433 103.876 24.241C103.875 24.2365 103.875 24.229 103.875 24.2188H105.875ZM104.812 22.8438H95.5V24.8438H104.812V22.8438ZM94.5 23.8438V43.25H96.5V23.8438H94.5ZM94.9651 42.4051C92.8779 43.7263 90.3823 44.4062 87.4375 44.4062V46.4062C90.7011 46.4062 93.5804 45.6487 96.0349 44.0949L94.9651 42.4051ZM87.4375 44.4062C85.0661 44.4062 83.2874 43.9759 82.018 43.2071L80.982 44.9179C82.671 45.9408 84.8506 46.4062 87.4375 46.4062V44.4062ZM81.995 43.1936C80.6486 42.4266 80.0312 41.3657 80.0312 39.9062H78.0312C78.0312 42.1134 79.0598 43.8234 81.005 44.9314L81.995 43.1936ZM80.0312 39.9062V25.25H78.0312V39.9062H80.0312ZM79.0312 26.25H80V24.25H79.0312V26.25ZM80 26.25C80.5991 26.25 81.2225 26.1569 81.7227 25.8268C82.2957 25.4487 82.5625 24.8581 82.5625 24.2188H80.5625C80.5625 24.2636 80.5545 24.2542 80.5722 24.2191C80.5805 24.2026 80.5913 24.1872 80.6028 24.1745C80.6141 24.1622 80.6218 24.1571 80.621 24.1576C80.6175 24.1599 80.5765 24.1852 80.4687 24.2089C80.3614 24.2325 80.2086 24.25 80 24.25V26.25ZM82.5625 24.2188C82.5625 24.0063 82.5153 23.782 82.4701 23.6012L80.5299 24.0863C80.5463 24.1522 80.5557 24.198 80.5605 24.2269C80.5616 24.2337 80.5624 24.2389 80.5629 24.2425C80.5634 24.2462 80.5636 24.248 80.5636 24.2479C80.5636 24.2479 80.5635 24.2473 80.5634 24.2462C80.5633 24.2451 80.5632 24.2433 80.5631 24.241C80.5628 24.2365 80.5625 24.229 80.5625 24.2188H82.5625ZM81.5 22.8438H76.3125V24.8438H81.5V22.8438ZM77.1322 23.271C76.0635 21.7417 75.5 19.817 75.5 17.4375H73.5C73.5 20.1413 74.1448 22.4875 75.4928 24.4165L77.1322 23.271ZM75.5 17.4375C75.5 15.0602 76.0629 13.0584 77.1503 11.3897L75.4747 10.2978C74.1455 12.3374 73.5 14.7315 73.5 17.4375H75.5ZM76.3125 11.8438H79.0312V9.84375H76.3125V11.8438ZM80.0219 10.9802C80.475 7.69044 81.7255 5.29728 83.6969 3.67923L82.4281 2.13327C79.9828 4.14022 78.5459 7.03873 78.0406 10.7073L80.0219 10.9802ZM83.6977 3.6786C85.704 2.02853 88.4073 1.15625 91.9062 1.15625V-0.84375C88.0719 -0.84375 84.8793 0.117301 82.4273 2.1339L83.6977 3.6786ZM91.9062 1.15625C94.2283 1.15625 96.3015 1.48649 98.1375 2.13104L98.8 0.243955C96.7193 -0.486491 94.4176 -0.84375 91.9062 -0.84375V1.15625ZM98.1465 2.13415C100.004 2.76656 101.359 3.58104 102.279 4.53713L103.721 3.15037C102.516 1.89813 100.85 0.941773 98.791 0.24085L98.1465 2.13415ZM102.145 3.32443C100.398 6.19957 99.503 9.48034 99.4377 13.1384L101.437 13.1741C101.497 9.83216 102.31 6.9046 103.855 4.36307L102.145 3.32443ZM100.296 12.1663C99.0233 12.3481 97.8418 12.4375 96.75 12.4375V14.4375C97.9498 14.4375 99.2267 14.3394 100.579 14.1462L100.296 12.1663ZM96.75 12.4375C95.6401 12.4375 94.4429 12.3769 93.1573 12.2545L92.9677 14.2455C94.3071 14.3731 95.5682 14.4375 96.75 14.4375V12.4375ZM93.1729 12.2561C91.8713 12.1115 90.9496 11.9613 90.3749 11.813L89.8751 13.7495C90.592 13.9345 91.6287 14.0968 92.9521 14.2439L93.1729 12.2561ZM89.4179 12.0741C89.0312 12.4608 88.9062 12.9565 88.9062 13.4062H90.9062C90.9062 13.3587 90.9128 13.3542 90.9048 13.3772C90.9006 13.3893 90.8929 13.407 90.8801 13.4278C90.8671 13.4489 90.8509 13.4695 90.8321 13.4884L89.4179 12.0741ZM88.9062 13.4062C88.9062 14.1176 89.4239 14.5504 89.7578 14.7641C90.134 15.0049 90.6281 15.1981 91.1814 15.3641L91.7561 13.4484C91.2678 13.3019 90.9806 13.1722 90.8359 13.0796C90.7656 13.0346 90.7711 13.0247 90.801 13.0641C90.8382 13.1132 90.9062 13.2327 90.9062 13.4062H88.9062ZM91.204 15.3706C92.4033 15.6998 94.1935 15.8438 96.5 15.8438V13.8438C94.2231 13.8438 92.6592 13.6961 91.7335 13.4419L91.204 15.3706ZM96.5 15.8438C98.8206 15.8438 100.749 15.7177 102.265 15.454L101.922 13.4835C100.564 13.7198 98.7627 13.8438 96.5 13.8438V15.8438ZM103.094 14.4688V13.4688H101.094V14.4688H103.094ZM103.094 13.4688C103.094 9.52262 104.136 6.53962 106.111 4.39623L104.639 3.04127C102.239 5.64788 101.094 9.16488 101.094 13.4688H103.094ZM106.111 4.39623C108.049 2.2921 111.02 1.15625 115.219 1.15625V-0.84375C110.668 -0.84375 107.076 0.395401 104.639 3.04127L106.111 4.39623ZM115.219 1.15625C117.751 1.15625 119.905 1.51841 121.702 2.21382L122.423 0.348682C120.345 -0.455912 117.936 -0.84375 115.219 -0.84375V1.15625ZM121.702 2.21382C123.572 2.93783 124.832 3.72403 125.582 4.52663L127.043 3.16087C126.002 2.0468 124.428 1.12467 122.423 0.348682L121.702 2.21382ZM125.355 4.13376C125.527 4.70012 125.625 5.4298 125.625 6.34375H127.625C127.625 5.29936 127.515 4.36238 127.27 3.55374L125.355 4.13376ZM125.625 6.34375V6.9375H127.625V6.34375H125.625ZM125.625 6.9375C125.625 8.98818 125.326 10.7475 124.754 12.2348L126.621 12.9527C127.299 11.19 127.625 9.17849 127.625 6.9375H125.625ZM125.323 11.6625C124.054 12.159 122.187 12.4375 119.656 12.4375V14.4375C122.292 14.4375 124.446 14.1535 126.052 13.525L125.323 11.6625ZM119.656 12.4375C118.639 12.4375 117.511 12.3676 116.27 12.2253L116.042 14.2122C117.344 14.3616 118.549 14.4375 119.656 14.4375V12.4375ZM116.272 12.2255C115.03 12.0806 114.153 11.9402 113.61 11.8092L113.14 13.7533C113.806 13.9139 114.782 14.0652 116.04 14.212L116.272 12.2255ZM112.668 12.0741C112.281 12.4608 112.156 12.9565 112.156 13.4062H114.156C114.156 13.3587 114.163 13.3542 114.155 13.3772C114.151 13.3893 114.143 13.407 114.13 13.4278C114.117 13.4489 114.101 13.4695 114.082 13.4884L112.668 12.0741ZM112.156 13.4062C112.156 14.0982 112.643 14.5315 112.977 14.7539C113.343 14.9985 113.824 15.1938 114.358 15.3607L114.955 13.4518C114.489 13.3062 114.219 13.1786 114.086 13.0898C114.022 13.0471 114.029 13.0394 114.059 13.0798C114.095 13.1297 114.156 13.2439 114.156 13.4062H112.156ZM114.376 15.3663C115.522 15.7004 117.258 15.8438 119.5 15.8438V13.8438C117.283 13.8438 115.79 13.6954 114.936 13.4462L114.376 15.3663ZM119.5 15.8438C121.78 15.8438 123.687 15.7176 125.203 15.454L124.86 13.4835C123.501 13.7199 121.72 13.8438 119.5 13.8438V15.8438ZM124.115 14.8696C124.197 15.0573 124.32 15.5604 124.446 16.5072L126.429 16.2428C126.305 15.3146 126.157 14.5468 125.947 14.0679L124.115 14.8696ZM124.45 16.5321C124.588 17.3987 124.656 18.2524 124.656 19.0938H126.656C126.656 18.1434 126.579 17.1846 126.425 16.2179L124.45 16.5321ZM124.656 19.0938C124.656 20.8933 124.323 22.2931 123.724 23.3507L125.464 24.3368C126.281 22.8944 126.656 21.1275 126.656 19.0938H124.656ZM124.594 22.8438H118.812V24.8438H124.594V22.8438ZM117.812 23.8438V43.25H119.812V23.8438H117.812ZM118.278 42.4051C116.19 43.7263 113.695 44.4062 110.75 44.4062V46.4062C114.014 46.4062 116.893 45.6487 119.347 44.0949L118.278 42.4051ZM130.875 41.1562L131.568 40.4357L131.562 40.4295L130.875 41.1562ZM131.031 14.5312L131.714 15.2617L131.717 15.259L131.031 14.5312ZM155.344 14.0625L154.668 14.7997L154.673 14.8045L155.344 14.0625ZM156.156 32.2188L155.566 31.4114L155.559 31.417L156.156 32.2188ZM139.281 32.9375L139.797 32.0808L139.22 31.7334L138.681 32.1375L139.281 32.9375ZM141.5 35.3438L141.823 34.3975L141.813 34.3938L141.802 34.3903L141.5 35.3438ZM152.812 35.4062L153.104 36.3628L153.111 36.3605L152.812 35.4062ZM156.969 33.5L157.627 32.7474L157.037 32.2313L156.395 32.6808L156.969 33.5ZM158.156 35.9375L157.185 36.176L157.188 36.1862L157.19 36.1962L158.156 35.9375ZM158.344 41.7188L158.99 42.4821L159.236 42.274L159.314 41.9613L158.344 41.7188ZM153.344 44.6562L153.021 43.7099L153.012 43.7129L153.003 43.716L153.344 44.6562ZM142.125 24.2812L141.135 24.1423L141.043 24.7943L141.606 25.136L142.125 24.2812ZM144.531 44.9688C138.952 44.9688 134.672 43.423 131.568 40.4358L130.182 41.8767C133.745 45.3062 138.569 46.9688 144.531 46.9688V44.9688ZM131.562 40.4295C128.383 37.4252 126.75 33.2926 126.75 27.9062H124.75C124.75 33.7283 126.534 38.429 130.188 41.883L131.562 40.4295ZM126.75 27.9062C126.75 22.5077 128.43 18.3324 131.714 15.2617L130.348 13.8008C126.591 17.3134 124.75 22.0548 124.75 27.9062H126.75ZM131.717 15.259C134.76 12.392 138.619 10.9375 143.375 10.9375V8.9375C138.173 8.9375 133.803 10.5455 130.345 13.8035L131.717 15.259ZM143.375 10.9375C148.163 10.9375 151.892 12.2546 154.668 14.7997L156.019 13.3253C152.796 10.3704 148.546 8.9375 143.375 8.9375V10.9375ZM154.673 14.8045C157.489 17.3479 158.875 20.4448 158.875 24.1562H160.875C160.875 19.8677 159.241 16.2354 156.014 13.3205L154.673 14.8045ZM158.875 24.1562C158.875 27.458 157.744 29.8192 155.566 31.4115L156.746 33.026C159.527 30.9933 160.875 27.9795 160.875 24.1562H158.875ZM155.559 31.417C153.495 32.9554 150.605 33.7812 146.781 33.7812V35.7812C150.874 35.7812 154.234 34.8988 156.754 33.0205L155.559 31.417ZM146.781 33.7812C143.961 33.7812 141.649 33.196 139.797 32.0808L138.765 33.7942C140.996 35.1373 143.685 35.7812 146.781 35.7812V33.7812ZM138.681 32.1375C138.142 32.5421 138.031 33.1674 138.031 33.625H140.031C140.031 33.5351 140.043 33.5179 140.034 33.5449C140.028 33.5608 140.015 33.5908 139.989 33.6275C139.962 33.665 139.926 33.7036 139.881 33.7375L138.681 32.1375ZM138.031 33.625C138.031 34.4248 138.563 34.9861 139.077 35.3441C139.61 35.7151 140.338 36.0249 141.198 36.2972L141.802 34.3903C141.016 34.1418 140.51 33.9047 140.22 33.7027C139.911 33.4879 140.031 33.4502 140.031 33.625H138.031ZM141.177 36.29C142.945 36.8943 144.922 37.1875 147.094 37.1875V35.1875C145.099 35.1875 143.347 34.9182 141.823 34.3975L141.177 36.29ZM147.094 37.1875C149.28 37.1875 151.286 36.917 153.104 36.3628L152.521 34.4497C150.922 34.9371 149.116 35.1875 147.094 35.1875V37.1875ZM153.111 36.3605C154.901 35.8001 156.389 35.1264 157.542 34.3192L156.395 32.6808C155.465 33.332 154.183 33.9291 152.514 34.452L153.111 36.3605ZM156.31 34.2526C156.572 34.482 156.907 35.0431 157.185 36.176L159.127 35.699C158.822 34.4569 158.365 33.393 157.627 32.7474L156.31 34.2526ZM157.19 36.1962C157.485 37.2973 157.625 38.282 157.625 39.1562H159.625C159.625 38.0722 159.452 36.911 159.122 35.6788L157.19 36.1962ZM157.625 39.1562C157.625 40.0515 157.537 40.8218 157.374 41.4762L159.314 41.9613C159.525 41.1157 159.625 40.1777 159.625 39.1562H157.625ZM157.698 40.9554C156.151 42.2639 154.592 43.1734 153.021 43.7099L153.667 45.6026C155.512 44.9724 157.286 43.9236 158.99 42.4821L157.698 40.9554ZM153.003 43.716C150.726 44.5404 147.911 44.9688 144.531 44.9688V46.9688C148.068 46.9688 151.128 46.5221 153.684 45.5965L153.003 43.716ZM144.125 25.8125C144.744 25.8125 145.391 25.6998 145.902 25.3118C146.464 24.8844 146.688 24.2599 146.688 23.625H144.688C144.688 23.7145 144.673 23.7458 144.674 23.7429C144.675 23.7414 144.677 23.7358 144.683 23.729C144.688 23.7222 144.692 23.7191 144.692 23.7195C144.682 23.7273 144.548 23.8125 144.125 23.8125V25.8125ZM146.688 23.625C146.688 22.9666 146.423 22.3531 145.835 21.954C145.317 21.602 144.665 21.5 144.031 21.5V23.5C144.254 23.5 144.418 23.5192 144.535 23.5456C144.652 23.5721 144.701 23.6012 144.712 23.6085C144.716 23.6112 144.699 23.5988 144.686 23.5734C144.676 23.5525 144.688 23.5605 144.688 23.625H146.688ZM144.031 21.5C143.297 21.5 142.593 21.7016 142.044 22.2147C141.505 22.7177 141.238 23.4069 141.135 24.1423L143.115 24.4202C143.179 23.9681 143.312 23.7666 143.409 23.676C143.496 23.5953 143.662 23.5 144.031 23.5V21.5ZM141.606 25.136C142.361 25.5944 143.211 25.8125 144.125 25.8125V23.8125C143.539 23.8125 143.056 23.6764 142.644 23.4265L141.606 25.136ZM166.25 41.1562L166.943 40.4357L166.937 40.4295L166.25 41.1562ZM166.406 14.5312L167.089 15.2617L167.092 15.259L166.406 14.5312ZM190.719 14.0625L190.043 14.7997L190.048 14.8045L190.719 14.0625ZM191.531 32.2188L190.941 31.4114L190.934 31.417L191.531 32.2188ZM174.656 32.9375L175.172 32.0808L174.595 31.7334L174.056 32.1375L174.656 32.9375ZM176.875 35.3438L177.198 34.3975L177.188 34.3938L177.177 34.3903L176.875 35.3438ZM188.188 35.4062L188.479 36.3628L188.486 36.3605L188.188 35.4062ZM192.344 33.5L193.002 32.7474L192.412 32.2313L191.77 32.6808L192.344 33.5ZM193.531 35.9375L192.56 36.176L192.563 36.1862L192.565 36.1962L193.531 35.9375ZM193.719 41.7188L194.365 42.4821L194.611 42.274L194.689 41.9613L193.719 41.7188ZM188.719 44.6562L188.396 43.7099L188.387 43.7129L188.378 43.716L188.719 44.6562ZM177.5 24.2812L176.51 24.1423L176.418 24.7943L176.981 25.136L177.5 24.2812ZM179.906 44.9688C174.327 44.9688 170.047 43.423 166.943 40.4358L165.557 41.8767C169.12 45.3062 173.944 46.9688 179.906 46.9688V44.9688ZM166.937 40.4295C163.758 37.4252 162.125 33.2926 162.125 27.9062H160.125C160.125 33.7283 161.909 38.429 165.563 41.883L166.937 40.4295ZM162.125 27.9062C162.125 22.5077 163.805 18.3324 167.089 15.2617L165.723 13.8008C161.966 17.3134 160.125 22.0548 160.125 27.9062H162.125ZM167.092 15.259C170.135 12.392 173.994 10.9375 178.75 10.9375V8.9375C173.548 8.9375 169.178 10.5455 165.72 13.8035L167.092 15.259ZM178.75 10.9375C183.538 10.9375 187.267 12.2546 190.043 14.7997L191.394 13.3253C188.171 10.3704 183.921 8.9375 178.75 8.9375V10.9375ZM190.048 14.8045C192.864 17.3479 194.25 20.4448 194.25 24.1562H196.25C196.25 19.8677 194.616 16.2354 191.389 13.3205L190.048 14.8045ZM194.25 24.1562C194.25 27.458 193.119 29.8192 190.941 31.4115L192.121 33.026C194.902 30.9933 196.25 27.9795 196.25 24.1562H194.25ZM190.934 31.417C188.87 32.9554 185.98 33.7812 182.156 33.7812V35.7812C186.249 35.7812 189.609 34.8988 192.129 33.0205L190.934 31.417ZM182.156 33.7812C179.336 33.7812 177.024 33.196 175.172 32.0808L174.14 33.7942C176.371 35.1373 179.06 35.7812 182.156 35.7812V33.7812ZM174.056 32.1375C173.517 32.5421 173.406 33.1674 173.406 33.625H175.406C175.406 33.5351 175.418 33.5179 175.409 33.5449C175.403 33.5608 175.39 33.5908 175.364 33.6275C175.337 33.665 175.301 33.7036 175.256 33.7375L174.056 32.1375ZM173.406 33.625C173.406 34.4248 173.938 34.9861 174.452 35.3441C174.985 35.7151 175.713 36.0249 176.573 36.2972L177.177 34.3903C176.391 34.1418 175.885 33.9047 175.595 33.7027C175.286 33.4879 175.406 33.4502 175.406 33.625H173.406ZM176.552 36.29C178.32 36.8943 180.297 37.1875 182.469 37.1875V35.1875C180.474 35.1875 178.722 34.9182 177.198 34.3975L176.552 36.29ZM182.469 37.1875C184.655 37.1875 186.661 36.917 188.479 36.3628L187.896 34.4497C186.297 34.9371 184.491 35.1875 182.469 35.1875V37.1875ZM188.486 36.3605C190.276 35.8001 191.764 35.1264 192.917 34.3192L191.77 32.6808C190.84 33.332 189.558 33.9291 187.889 34.452L188.486 36.3605ZM191.685 34.2526C191.947 34.482 192.282 35.0431 192.56 36.176L194.502 35.699C194.197 34.4569 193.74 33.393 193.002 32.7474L191.685 34.2526ZM192.565 36.1962C192.86 37.2973 193 38.282 193 39.1562H195C195 38.0722 194.827 36.911 194.497 35.6788L192.565 36.1962ZM193 39.1562C193 40.0515 192.912 40.8218 192.749 41.4762L194.689 41.9613C194.9 41.1157 195 40.1777 195 39.1562H193ZM193.073 40.9554C191.526 42.2639 189.967 43.1734 188.396 43.7099L189.042 45.6026C190.887 44.9724 192.661 43.9236 194.365 42.4821L193.073 40.9554ZM188.378 43.716C186.101 44.5404 183.286 44.9688 179.906 44.9688V46.9688C183.443 46.9688 186.503 46.5221 189.059 45.5965L188.378 43.716ZM179.5 25.8125C180.119 25.8125 180.766 25.6998 181.277 25.3118C181.839 24.8844 182.062 24.2599 182.062 23.625H180.062C180.062 23.7145 180.048 23.7458 180.049 23.7429C180.05 23.7414 180.052 23.7358 180.058 23.729C180.063 23.7222 180.067 23.7191 180.067 23.7195C180.057 23.7273 179.923 23.8125 179.5 23.8125V25.8125ZM182.062 23.625C182.062 22.9666 181.798 22.3531 181.21 21.954C180.692 21.602 180.04 21.5 179.406 21.5V23.5C179.629 23.5 179.793 23.5192 179.91 23.5456C180.027 23.5721 180.076 23.6012 180.087 23.6085C180.091 23.6112 180.074 23.5988 180.061 23.5734C180.051 23.5525 180.062 23.5605 180.062 23.625H182.062ZM179.406 21.5C178.672 21.5 177.968 21.7016 177.419 22.2147C176.88 22.7177 176.613 23.4069 176.51 24.1423L178.49 24.4202C178.554 23.9681 178.687 23.7666 178.784 23.676C178.871 23.5953 179.037 23.5 179.406 23.5V21.5ZM176.981 25.136C177.736 25.5944 178.586 25.8125 179.5 25.8125V23.8125C178.914 23.8125 178.431 23.6764 178.019 23.4265L176.981 25.136ZM228.594 20.5L228.336 19.5338L228.318 19.5386L228.3 19.5442L228.594 20.5ZM227.812 21.8125L227.105 22.5196L227.437 22.8508L227.903 22.8084L227.812 21.8125ZM236.125 22.875L235.792 23.8179L235.803 23.8218L236.125 22.875ZM241.219 26.3125L241.994 25.6812L241.989 25.6743L241.219 26.3125ZM215.656 43.5312L215.15 44.3939L215.153 44.3955L215.656 43.5312ZM212.25 33.1875L213.137 33.6501L213.141 33.6423L212.25 33.1875ZM213.938 31.125L214.579 30.3579L214.019 29.8896L213.402 30.2802L213.938 31.125ZM218.906 33.625L218.595 34.5756L218.606 34.579L218.906 33.625ZM227.219 33.2188L228.155 32.8676L227.873 32.1151L227.077 32.2288L227.219 33.2188ZM215.75 30.625L216.302 29.7909L216.301 29.7903L215.75 30.625ZM215.281 13.5L214.645 12.7287L214.643 12.7303L215.281 13.5ZM234.719 10.625L234.481 11.5962L234.483 11.5967L234.719 10.625ZM240.438 12.7812L241.345 12.3608L241.21 12.0692L240.93 11.9109L240.438 12.7812ZM238.938 22.4062L238.456 23.2828L239.104 23.6383L239.634 23.124L238.938 22.4062ZM235.031 20.9688L234.779 21.9365L234.787 21.9385L234.795 21.9404L235.031 20.9688ZM228.3 19.5442C227.906 19.6652 227.513 19.8726 227.218 20.2246C226.911 20.5906 226.781 21.0283 226.781 21.4688H228.781C228.781 21.4436 228.785 21.4432 228.779 21.4586C228.774 21.4757 228.763 21.4948 228.751 21.5098C228.726 21.5389 228.739 21.5015 228.888 21.4558L228.3 19.5442ZM226.781 21.4688V21.625H228.781V21.4688H226.781ZM226.781 21.625C226.781 21.7019 226.785 21.8055 226.803 21.9144C226.811 21.9615 226.853 22.2677 227.105 22.5196L228.52 21.1054C228.653 21.2393 228.712 21.3766 228.735 21.4379C228.761 21.5074 228.772 21.5619 228.775 21.5856C228.783 21.632 228.781 21.6523 228.781 21.625H226.781ZM227.903 22.8084C228.089 22.7915 228.358 22.7812 228.719 22.7812V20.7812C228.33 20.7812 227.994 20.7919 227.722 20.8166L227.903 22.8084ZM228.719 22.7812H229.469V20.7812H228.719V22.7812ZM229.469 22.7812C231.74 22.7812 233.845 23.1296 235.792 23.8178L236.458 21.9322C234.28 21.1621 231.948 20.7812 229.469 20.7812V22.7812ZM235.803 23.8218C237.724 24.4749 239.263 25.5197 240.449 26.9507L241.989 25.6743C240.55 23.9387 238.692 22.6917 236.447 21.9282L235.803 23.8218ZM240.443 26.9438C241.731 28.526 242.406 30.551 242.406 33.0938H244.406C244.406 30.1782 243.623 27.6823 241.994 25.6812L240.443 26.9438ZM242.406 33.0938C242.406 37.0856 241.044 39.9685 238.406 41.914L239.594 43.5235C242.831 41.1357 244.406 37.6019 244.406 33.0938H242.406ZM238.406 41.914C235.692 43.9164 231.995 44.9688 227.219 44.9688V46.9688C232.276 46.9688 236.433 45.8545 239.594 43.5235L238.406 41.914ZM227.219 44.9688C222.394 44.9688 218.739 44.1683 216.159 42.667L215.153 44.3955C218.157 46.1442 222.21 46.9688 227.219 46.9688V44.9688ZM216.162 42.6686C213.689 41.2185 212.5 39.1569 212.5 36.375H210.5C210.5 39.8848 212.081 42.594 215.15 44.3939L216.162 42.6686ZM212.5 36.375C212.5 35.3563 212.717 34.4544 213.137 33.6501L211.363 32.7249C210.783 33.8372 210.5 35.0603 210.5 36.375H212.5ZM213.141 33.6423C213.596 32.7504 214.055 32.2342 214.473 31.9698L213.402 30.2802C212.57 30.8075 211.904 31.6662 211.359 32.7327L213.141 33.6423ZM213.296 31.8921C214.577 32.9633 216.365 33.8463 218.596 34.5755L219.217 32.6745C217.114 31.987 215.59 31.2033 214.579 30.3579L213.296 31.8921ZM218.606 34.579C220.897 35.2989 223.311 35.6562 225.844 35.6562V33.6562C223.502 33.6562 221.291 33.3261 219.206 32.671L218.606 34.579ZM225.844 35.6562C226.393 35.6562 226.963 35.586 227.429 35.3282C227.678 35.1909 227.91 34.9921 228.077 34.7153C228.245 34.4369 228.312 34.1347 228.312 33.8438H226.312C226.312 33.8236 226.319 33.7585 226.364 33.6831C226.409 33.6094 226.458 33.5799 226.461 33.5781C226.461 33.578 226.45 33.5841 226.424 33.5929C226.397 33.6017 226.358 33.6122 226.305 33.622C226.196 33.6421 226.045 33.6562 225.844 33.6562V35.6562ZM228.312 33.8438C228.312 33.5186 228.273 33.182 228.155 32.8676L226.282 33.5699C226.29 33.5888 226.312 33.6689 226.312 33.8438H228.312ZM227.077 32.2288C226.993 32.2408 226.866 32.25 226.688 32.25V34.25C226.925 34.25 227.153 34.2383 227.36 34.2087L227.077 32.2288ZM226.688 32.25H226.344V34.25H226.688V32.25ZM226.344 32.25C222.049 32.25 218.731 31.398 216.302 29.7909L215.198 31.4591C218.06 33.352 221.805 34.25 226.344 34.25V32.25ZM216.301 29.7903C213.582 27.9968 212.25 25.5193 212.25 22.25H210.25C210.25 26.1891 211.918 29.2949 215.199 31.4597L216.301 29.7903ZM212.25 22.25C212.25 18.9324 213.47 16.3019 215.92 14.2697L214.643 12.7303C211.718 15.1564 210.25 18.3593 210.25 22.25H212.25ZM215.918 14.2713C218.664 12.0053 222.505 10.8125 227.562 10.8125V8.8125C222.203 8.8125 217.857 10.0781 214.645 12.7287L215.918 14.2713ZM227.562 10.8125C230.055 10.8125 232.359 11.0759 234.481 11.5962L234.957 9.65379C232.662 9.09076 230.195 8.8125 227.562 8.8125V10.8125ZM234.483 11.5967C236.644 12.122 238.46 12.8113 239.945 13.6516L240.93 11.9109C239.249 10.9596 237.252 10.2113 234.955 9.65328L234.483 11.5967ZM239.53 13.2017C239.835 13.8588 240.031 14.9459 240.031 16.5625H242.031C242.031 14.8458 241.832 13.412 241.345 12.3608L239.53 13.2017ZM240.031 16.5625C240.031 18.9205 239.388 20.5756 238.241 21.6885L239.634 23.124C241.278 21.5286 242.031 19.2879 242.031 16.5625H240.031ZM239.419 21.5297C238.26 20.8933 236.87 20.3869 235.268 19.9971L234.795 21.9404C236.276 22.3006 237.49 22.7525 238.456 23.2828L239.419 21.5297ZM235.283 20.001C233.702 19.5894 232.24 19.375 230.906 19.375V21.375C232.031 21.375 233.319 21.5565 234.779 21.9365L235.283 20.001ZM230.906 19.375C230.283 19.375 229.763 19.3855 229.352 19.4077C228.966 19.4286 228.603 19.4627 228.336 19.5338L228.851 21.4662C228.851 21.4662 228.852 21.466 228.855 21.4654C228.857 21.4649 228.86 21.4642 228.864 21.4633C228.873 21.4614 228.885 21.4591 228.901 21.4564C228.932 21.451 228.975 21.445 229.029 21.4387C229.138 21.4262 229.28 21.4145 229.46 21.4048C229.82 21.3853 230.3 21.375 230.906 21.375V19.375ZM277.781 29.5312L276.781 29.5159L276.781 29.5236V29.5312H277.781ZM280.031 35.3125L281.012 35.1164L280.927 34.6932L280.561 34.4645L280.031 35.3125ZM277.562 43.1875L278.256 43.9082L278.256 43.908L277.562 43.1875ZM264.812 43.3438L265.486 42.6042L265.477 42.5968L264.812 43.3438ZM262.156 31.8125L261.165 31.6839L261.164 31.692L261.163 31.7L262.156 31.8125ZM262.438 29.4062L261.446 29.2769L261.443 29.2982L261.441 29.3196L262.438 29.4062ZM262.375 24.4688L261.513 24.9758L261.524 24.9941L261.535 25.012L262.375 24.4688ZM260.469 24.1875L259.973 23.3193L259.421 23.6342L259.472 24.267L260.469 24.1875ZM260.875 29.2812L261.859 29.4567L261.882 29.33L261.872 29.2017L260.875 29.2812ZM261.906 42.4062L262.624 43.1026L263.138 42.5728L262.783 41.9254L261.906 42.4062ZM247.844 43.9062L248.426 43.0932L248.416 43.0861L247.844 43.9062ZM245.156 2.46875L244.652 1.60497L244.156 1.89438V2.46875H245.156ZM248.75 1.03125L248.494 0.0645382L248.491 0.0654952L248.75 1.03125ZM258.969 1.875L259.498 1.02644L259.491 1.02191L259.483 1.01751L258.969 1.875ZM261.625 9.59375L261.682 10.5921L262.625 10.5379V9.59375H261.625ZM256.406 11.1562L255.916 10.2846L255.905 10.2911L256.406 11.1562ZM254.5 14.0625L253.753 14.7269L253.772 14.7488L253.793 14.7696L254.5 14.0625ZM255.094 14.375L254.915 15.3589L255.48 15.4615L255.853 15.0258L255.094 14.375ZM258.781 11.8125L258.387 10.8933L258.383 10.8952L258.781 11.8125ZM270.375 11.7812L270.019 12.7157L270.022 12.7169L270.375 11.7812ZM275.594 15.5938L276.401 15.0041L276.396 14.9969L275.594 15.5938ZM277.875 23.4375L278.875 23.4529L278.875 23.4452V23.4375H277.875ZM276.781 29.5312C276.781 31.0919 276.953 32.4293 277.341 33.498L279.221 32.8145C278.943 32.0498 278.781 30.9706 278.781 29.5312H276.781ZM277.341 33.498C277.752 34.6261 278.48 35.5223 279.501 36.1605L280.561 34.4645C279.916 34.061 279.477 33.5197 279.221 32.8145L277.341 33.498ZM279.051 35.5086C279.047 35.489 279.052 35.5072 279.056 35.5916C279.06 35.667 279.062 35.7706 279.062 35.9062H281.062C281.062 35.6249 281.055 35.3316 281.012 35.1164L279.051 35.5086ZM279.062 35.9062V36.4688H281.062V35.9062H279.062ZM279.062 36.4688C279.062 39.1422 278.294 41.0951 276.869 42.467L278.256 43.908C280.164 42.0716 281.062 39.5453 281.062 36.4688H279.062ZM276.869 42.4668C275.438 43.844 273.564 44.5625 271.156 44.5625V46.5625C273.998 46.5625 276.396 45.6976 278.256 43.9082L276.869 42.4668ZM271.156 44.5625C268.752 44.5625 266.893 43.8856 265.486 42.6042L264.139 44.0833C265.982 45.7602 268.352 46.5625 271.156 46.5625V44.5625ZM265.477 42.5968C263.863 41.1596 262.969 38.9142 262.969 35.6562H260.969C260.969 39.2733 261.971 42.1529 264.148 44.0907L265.477 42.5968ZM262.969 35.6562C262.969 34.2246 263.03 32.9824 263.15 31.925L261.163 31.7C261.032 32.851 260.969 34.1712 260.969 35.6562H262.969ZM263.148 31.9411C263.294 30.8157 263.39 29.9951 263.434 29.4929L261.441 29.3196C261.402 29.7757 261.31 30.5593 261.165 31.6839L263.148 31.9411ZM263.429 29.5356C263.491 29.0619 263.553 28.6203 263.614 28.2108L261.636 27.9142C261.572 28.338 261.509 28.7923 261.446 29.2769L263.429 29.5356ZM263.614 28.2108C263.688 27.7188 263.719 27.0443 263.719 26.2188H261.719C261.719 27.0182 261.687 27.5729 261.636 27.9142L263.614 28.2108ZM263.719 26.2188C263.719 25.3633 263.608 24.533 263.215 23.9255L261.535 25.012C261.601 25.1129 261.719 25.4492 261.719 26.2188H263.719ZM263.237 23.9617C262.857 23.3164 262.235 22.9375 261.469 22.9375V24.9375C261.493 24.9375 261.503 24.9402 261.502 24.94C261.501 24.9396 261.494 24.9376 261.486 24.933C261.479 24.9285 261.477 24.9256 261.48 24.9292C261.484 24.9333 261.496 24.9468 261.513 24.9758L263.237 23.9617ZM261.469 22.9375C260.94 22.9375 260.432 23.0565 259.973 23.3193L260.965 25.0557C261.088 24.9851 261.247 24.9375 261.469 24.9375V22.9375ZM259.472 24.267L259.878 29.3608L261.872 29.2017L261.466 24.108L259.472 24.267ZM259.891 29.1058C259.504 31.2734 259.312 33.5616 259.312 35.9688H261.312C261.312 33.6676 261.496 31.4975 261.859 29.4567L259.891 29.1058ZM259.312 35.9688C259.312 38.4797 259.881 40.7926 261.029 42.8871L262.783 41.9254C261.807 40.1449 261.312 38.1662 261.312 35.9688H259.312ZM261.189 41.7099C259.381 43.5727 256.803 44.5625 253.312 44.5625V46.5625C257.197 46.5625 260.348 45.4481 262.624 43.1026L261.189 41.7099ZM253.312 44.5625C251.393 44.5625 249.779 44.0626 248.426 43.0933L247.261 44.7192C248.991 45.9583 251.023 46.5625 253.312 46.5625V44.5625ZM248.416 43.0861C246.874 42.0101 246.156 40.6509 246.156 38.9375H244.156C244.156 41.3491 245.231 43.3024 247.272 44.7264L248.416 43.0861ZM246.156 38.9375V2.46875H244.156V38.9375H246.156ZM245.66 3.33253C246.567 2.80332 247.679 2.35444 249.009 1.997L248.491 0.0654952C247.029 0.458065 245.745 0.967509 244.652 1.60497L245.66 3.33253ZM249.006 1.99796C250.341 1.64463 251.682 1.46875 253.031 1.46875V-0.53125C251.506 -0.53125 249.993 -0.332125 248.494 0.0645448L249.006 1.99796ZM253.031 1.46875C255.301 1.46875 257.089 1.91322 258.454 2.73249L259.483 1.01751C257.724 -0.0382165 255.553 -0.53125 253.031 -0.53125V1.46875ZM258.44 2.72356C259.922 3.64773 260.625 4.91262 260.625 6.625H262.625C262.625 4.21238 261.557 2.3106 259.498 1.02644L258.44 2.72356ZM260.625 6.625V9.59375H262.625V6.625H260.625ZM261.568 8.5954C259.595 8.70877 257.708 9.27658 255.916 10.2847L256.897 12.0278C258.438 11.1609 260.03 10.6871 261.682 10.5921L261.568 8.5954ZM255.905 10.2911C255.145 10.7312 254.515 11.1859 254.062 11.6646C253.617 12.1361 253.25 12.7327 253.25 13.4375H255.25C255.25 13.4548 255.243 13.3274 255.516 13.0385C255.782 12.7568 256.23 12.4146 256.908 12.0214L255.905 10.2911ZM253.25 13.4375C253.25 13.9355 253.44 14.375 253.753 14.7269L255.247 13.3981C255.232 13.3807 255.235 13.3791 255.241 13.3942C255.244 13.4013 255.246 13.4096 255.248 13.4184C255.25 13.4271 255.25 13.4338 255.25 13.4375H253.25ZM253.793 14.7696C254.102 15.0783 254.483 15.2804 254.915 15.3589L255.273 13.3911C255.246 13.3863 255.232 13.3801 255.207 13.3554L253.793 14.7696ZM255.853 15.0258C256.606 14.1478 257.697 13.3735 259.18 12.7298L258.383 10.8952C256.699 11.6265 255.332 12.5605 254.334 13.7242L255.853 15.0258ZM259.175 12.7316C260.628 12.1092 262.384 11.7812 264.469 11.7812V9.78125C262.179 9.78125 260.143 10.1408 258.387 10.8934L259.175 12.7316ZM264.469 11.7812C266.555 11.7812 268.4 12.099 270.019 12.7157L270.731 10.8468C268.85 10.1302 266.758 9.78125 264.469 9.78125V11.7812ZM270.022 12.7169C272.071 13.4902 273.647 14.6523 274.791 16.1906L276.396 14.9969C274.999 13.1186 273.095 11.739 270.728 10.8456L270.022 12.7169ZM274.786 16.1834C276.157 18.0608 276.875 20.4561 276.875 23.4375H278.875C278.875 20.1272 278.073 17.2934 276.401 15.0041L274.786 16.1834ZM276.875 23.4221L276.781 29.5159L278.781 29.5466L278.875 23.4529L276.875 23.4221ZM297.25 33.0625H296.25V33.4767L296.543 33.7696L297.25 33.0625ZM298.656 23.3125L297.686 23.555L297.688 23.5624L298.656 23.3125ZM296.969 22.625L296.262 21.9179L295.93 22.2491L295.973 22.7155L296.969 22.625ZM285.562 41.4375L286.26 40.7208L286.256 40.7173L285.562 41.4375ZM285.25 14.7188L284.538 14.0162L284.538 14.0162L285.25 14.7188ZM310.625 14.9062L311.352 14.2195L311.35 14.2172L310.625 14.9062ZM310.781 41.1562L310.063 40.4609L310.06 40.4633L310.781 41.1562ZM296.25 27.5938V33.0625H298.25V27.5938H296.25ZM296.543 33.7696C296.964 34.1904 297.527 34.2812 297.969 34.2812V32.2812C297.921 32.2812 297.887 32.2786 297.863 32.2756C297.839 32.2725 297.829 32.2695 297.83 32.2699C297.834 32.2711 297.892 32.2899 297.957 32.3554L296.543 33.7696ZM297.969 34.2812C298.555 34.2812 299.158 34.0601 299.531 33.4744L297.844 32.4006C297.854 32.3843 297.871 32.363 297.895 32.3416C297.919 32.3201 297.944 32.304 297.967 32.2932C298.012 32.2718 298.023 32.2812 297.969 32.2812V34.2812ZM299.531 33.4744C299.841 32.987 299.906 32.338 299.906 31.75H297.906C297.906 31.9924 297.89 32.1677 297.868 32.2876C297.845 32.4144 297.823 32.4336 297.844 32.4006L299.531 33.4744ZM299.906 31.75V27.2812H297.906V31.75H299.906ZM299.906 27.2812C299.906 25.3033 299.828 23.8519 299.625 23.0626L297.688 23.5624C297.818 24.0648 297.906 25.2592 297.906 27.2812H299.906ZM299.626 23.07C299.521 22.6482 299.343 22.2167 299.026 21.8786C298.68 21.5095 298.223 21.3125 297.719 21.3125V23.3125C297.709 23.3125 297.678 23.3102 297.638 23.2929C297.598 23.2755 297.575 23.2541 297.567 23.2464C297.562 23.2412 297.577 23.2554 297.602 23.3071C297.627 23.359 297.657 23.4389 297.686 23.555L299.626 23.07ZM297.719 21.3125C297.159 21.3125 296.655 21.5242 296.262 21.9179L297.676 23.3321C297.687 23.3214 297.693 23.3163 297.696 23.3145C297.699 23.3128 297.699 23.313 297.697 23.3137C297.695 23.3144 297.695 23.3144 297.697 23.314C297.699 23.3137 297.706 23.3125 297.719 23.3125V21.3125ZM295.973 22.7155C296.159 24.7647 296.25 26.3871 296.25 27.5938H298.25C298.25 26.3004 298.153 24.6103 297.965 22.5345L295.973 22.7155ZM286.256 40.7173C283.071 37.6489 281.438 33.4703 281.438 28.0625H279.438C279.438 33.9047 281.22 38.6428 284.869 42.1577L286.256 40.7173ZM281.438 28.0625C281.438 22.6139 282.98 18.442 285.962 15.4213L284.538 14.0162C281.104 17.4955 279.438 22.2194 279.438 28.0625H281.438ZM285.962 15.4213C288.976 12.3676 292.936 10.8125 297.938 10.8125V8.8125C292.481 8.8125 287.982 10.5283 284.538 14.0162L285.962 15.4213ZM297.938 10.8125C302.928 10.8125 306.883 12.4221 309.9 15.5953L311.35 14.2172C307.909 10.5988 303.406 8.8125 297.938 8.8125V10.8125ZM309.898 15.593C312.902 18.7723 314.438 22.9386 314.438 28.1875H316.438C316.438 22.5198 314.765 17.8319 311.352 14.2195L309.898 15.593ZM314.438 28.1875C314.438 33.4255 312.949 37.4781 310.063 40.4609L311.5 41.8516C314.822 38.4177 316.438 33.8245 316.438 28.1875H314.438ZM310.06 40.4633C307.202 43.4379 303.285 44.9688 298.188 44.9688V46.9688C303.715 46.9688 308.194 45.2913 311.502 41.8492L310.06 40.4633ZM298.188 44.9688C293.073 44.9688 289.137 43.5207 286.26 40.7208L284.865 42.1542C288.196 45.396 292.677 46.9688 298.188 46.9688V44.9688ZM333.938 32.3125H332.938V32.7267L333.23 33.0196L333.938 32.3125ZM335.344 23.8438L334.374 24.0863L334.375 24.0936L335.344 23.8438ZM333.656 23.1562L332.949 22.4491L332.618 22.7803L332.66 23.2468L333.656 23.1562ZM325.062 15.5938V16.5938H325.611L325.905 16.1318L325.062 15.5938ZM329.469 11.25L329.954 12.1242L329.963 12.1196L329.469 11.25ZM342.062 10.9375L342.43 10.0075L342.42 10.0036L342.062 10.9375ZM348.438 16.0625L349.273 15.5132L349.271 15.5095L348.438 16.0625ZM347 40.4688L346.281 39.7742L346.281 39.7742L347 40.4688ZM328.219 43.9062L328.623 42.9915L328.161 42.7876L327.723 43.038L328.219 43.9062ZM329.438 45.7812L329.166 46.7436L329.171 46.7451L329.438 45.7812ZM334.469 46.375H335.469V45.4262L334.521 45.3764L334.469 46.375ZM334.469 54.6875L334.877 55.6006L335.469 55.3361V54.6875H334.469ZM320.562 54.4688L321.145 53.6558L321.134 53.6484L321.124 53.6413L320.562 54.4688ZM317.938 23.8438H318.938V23.5245L318.753 23.2644L317.938 23.8438ZM316.594 14L315.629 13.7383L316.594 14ZM317.938 10.8438V9.84375H317.392L317.096 10.303L317.938 10.8438ZM326.531 11.5938L327.128 12.3961L328.407 11.4446L326.994 10.7072L326.531 11.5938ZM332.938 28.125V32.3125H334.938V28.125H332.938ZM333.23 33.0196C333.651 33.4404 334.214 33.5312 334.656 33.5312V31.5312C334.609 31.5312 334.574 31.5286 334.55 31.5256C334.526 31.5225 334.516 31.5195 334.518 31.5199C334.522 31.5211 334.579 31.5399 334.645 31.6054L333.23 33.0196ZM334.656 33.5312C335.242 33.5312 335.846 33.3101 336.219 32.7244L334.531 31.6506C334.542 31.6343 334.558 31.613 334.582 31.5916C334.607 31.5701 334.632 31.554 334.654 31.5432C334.699 31.5218 334.711 31.5312 334.656 31.5312V33.5312ZM336.219 32.7244C336.529 32.237 336.594 31.588 336.594 31H334.594C334.594 31.2424 334.578 31.4177 334.556 31.5376C334.532 31.6644 334.51 31.6836 334.531 31.6506L336.219 32.7244ZM336.594 31V27.8125H334.594V31H336.594ZM336.594 27.8125C336.594 25.8346 336.516 24.3832 336.312 23.5939L334.375 24.0936C334.505 24.596 334.594 25.7904 334.594 27.8125H336.594ZM336.314 23.6012C336.208 23.1794 336.031 22.7479 335.714 22.4098C335.368 22.0408 334.911 21.8438 334.406 21.8438V23.8438C334.397 23.8438 334.366 23.8414 334.326 23.8241C334.286 23.8068 334.262 23.7854 334.255 23.7777C334.25 23.7724 334.265 23.7866 334.29 23.8384C334.314 23.8903 334.345 23.9701 334.374 24.0863L336.314 23.6012ZM334.406 21.8438C333.846 21.8438 333.343 22.0554 332.949 22.4491L334.363 23.8634C334.374 23.8527 334.381 23.8476 334.384 23.8458C334.386 23.844 334.386 23.8442 334.385 23.845C334.383 23.8457 334.382 23.8456 334.384 23.8453C334.386 23.8449 334.393 23.8438 334.406 23.8438V21.8438ZM332.66 23.2468C332.847 25.2959 332.938 26.9183 332.938 28.125H334.938C334.938 26.8317 334.841 25.1416 334.652 23.0657L332.66 23.2468ZM322.969 14.6562C322.969 15.1666 323.125 15.7187 323.591 16.1186C324.028 16.4933 324.578 16.5938 325.062 16.5938V14.5938C324.948 14.5938 324.885 14.5812 324.859 14.5736C324.835 14.5669 324.856 14.5688 324.893 14.6001C324.911 14.6153 324.928 14.6337 324.942 14.6541C324.956 14.6743 324.964 14.692 324.969 14.704C324.978 14.7266 324.969 14.7175 324.969 14.6562H322.969ZM325.905 16.1318C327.084 14.2851 328.439 12.9661 329.954 12.1242L328.983 10.3758C327.124 11.4089 325.541 12.9857 324.22 15.0557L325.905 16.1318ZM329.963 12.1196C331.469 11.2639 333.322 10.8125 335.562 10.8125V8.8125C333.053 8.8125 330.843 9.31942 328.975 10.3804L329.963 12.1196ZM335.562 10.8125C337.831 10.8125 339.875 11.1705 341.705 11.8714L342.42 10.0036C340.334 9.20452 338.044 8.8125 335.562 8.8125V10.8125ZM341.695 11.8675C344.197 12.8567 346.158 14.4357 347.604 16.6155L349.271 15.5095C347.592 12.981 345.303 11.1433 342.43 10.0075L341.695 11.8675ZM347.602 16.6118C349.421 19.3793 350.375 23.0756 350.375 27.7812H352.375C352.375 22.8203 351.371 18.704 349.273 15.5132L347.602 16.6118ZM350.375 27.7812C350.375 33.0389 348.969 36.9899 346.281 39.7742L347.719 41.1633C350.865 37.9059 352.375 33.3986 352.375 27.7812H350.375ZM346.281 39.7742C343.616 42.5351 339.88 43.9688 334.938 43.9688V45.9688C340.287 45.9688 344.593 44.4024 347.719 41.1633L346.281 39.7742ZM334.938 43.9688C332.124 43.9688 330.044 43.6189 328.623 42.9915L327.815 44.821C329.602 45.6103 332.001 45.9688 334.938 45.9688V43.9688ZM327.723 43.038C327.106 43.3905 327 44.0399 327 44.4375H329C329 44.3826 329.009 44.4111 328.979 44.4823C328.944 44.5692 328.862 44.6906 328.715 44.7745L327.723 43.038ZM327 44.4375C327 45.042 327.246 45.5702 327.676 45.9727C328.077 46.3475 328.606 46.5853 329.166 46.7436L329.709 44.8189C329.311 44.7064 329.12 44.5847 329.042 44.5117C329.025 44.4954 329.015 44.4833 329.01 44.4762C329.005 44.4693 329.003 44.4658 329.003 44.4653C329.003 44.4648 329.002 44.464 329.002 44.4615C329.001 44.4589 329 44.4514 329 44.4375H327ZM329.171 46.7451C330.265 47.0477 332.039 47.2485 334.416 47.3736L334.521 45.3764C332.148 45.2515 330.568 45.0564 329.704 44.8174L329.171 46.7451ZM333.469 46.375V54.6875H335.469V46.375H333.469ZM334.061 53.7744C332.055 54.6704 329.841 55.125 327.406 55.125V57.125C330.096 57.125 332.591 56.6212 334.877 55.6006L334.061 53.7744ZM327.406 55.125C324.48 55.125 322.443 54.5854 321.145 53.6558L319.98 55.2817C321.766 56.5604 324.291 57.125 327.406 57.125V55.125ZM321.124 53.6413C319.696 52.6723 318.938 51.1891 318.938 49H316.938C316.938 51.7275 317.929 53.8902 320.001 55.2962L321.124 53.6413ZM318.938 49V23.8438H316.938V49H318.938ZM318.753 23.2644C317.667 21.7371 317.094 19.8051 317.094 17.4062H315.094C315.094 20.1324 315.75 22.4921 317.122 24.4231L318.753 23.2644ZM317.094 17.4062C317.094 16.47 317.244 15.4238 317.559 14.2617L315.629 13.7383C315.277 15.0346 315.094 16.2591 315.094 17.4062H317.094ZM317.559 14.2617C317.871 13.1101 318.282 12.1566 318.779 11.3845L317.096 10.303C316.468 11.2809 315.983 12.4316 315.629 13.7383L317.559 14.2617ZM317.938 11.8438H322.375V9.84375H317.938V11.8438ZM322.375 11.8438C324.122 11.8438 325.319 12.0892 326.069 12.4803L326.994 10.7072C325.827 10.0983 324.253 9.84375 322.375 9.84375V11.8438ZM325.934 10.7914C325.05 11.4493 324.34 12.0756 323.842 12.6708C323.364 13.2424 322.969 13.9177 322.969 14.6562H324.969C324.969 14.624 325 14.4035 325.376 13.9542C325.732 13.5286 326.304 13.0091 327.128 12.3961L325.934 10.7914Z" fill="#FFEA30"/>
</svg>
